<svg width="10" height="9" viewBox="0 0 10 9" fill="none" xmlns="http://www.w3.org/2000/svg">
<path d="M0.59407 0.102034C0.472732 0.0667858 0.341837 0.100947 0.253198 0.190996C0.16456 0.281045 0.132469 0.412463 0.169628 0.53323L1.28442 4.15631H5.18747C5.37732 4.15631 5.53122 4.31021 5.53122 4.50006C5.53122 4.68991 5.37732 4.84381 5.18747 4.84381H1.28443L0.16967 8.46677C0.132511 8.58754 0.164602 8.71896 0.253242 8.80901C0.341881 8.89906 0.472777 8.93322 0.594116 8.89797C3.6643 8.00606 6.51546 6.59988 9.04813 4.77906C9.13797 4.71447 9.19123 4.61059 9.19123 4.49995C9.19123 4.3893 9.13797 4.28543 9.04813 4.22084C6.51544 2.40005 3.66427 0.993907 0.59407 0.102034Z" fill="#F7F7F7"/>
</svg>
