<svg width="150" height="150" viewBox="0 0 150 150" fill="none" xmlns="http://www.w3.org/2000/svg">
<g clip-path="url(#clip0_116_2)">
<path d="M75 0C33.6462 0 0 33.6433 0 75C0 116.357 33.6462 150 75 150C116.354 150 150 116.357 150 75C150 33.6433 116.354 0 75 0ZM75 144.231C36.8279 144.231 5.76923 113.172 5.76923 75C5.76923 36.8279 36.8279 5.76923 75 5.76923C113.172 5.76923 144.231 36.8279 144.231 75C144.231 113.172 113.172 144.231 75 144.231Z" fill="#008F0A"/>
<path d="M110.342 44.2385L66.0087 94.1135L39.3 72.7471C38.0597 71.7519 36.2395 71.9568 35.2472 73.1971C34.252 74.4433 34.4539 76.2577 35.6972 77.2529L64.5433 100.33C65.0741 100.754 65.7116 100.962 66.3462 100.962C67.1423 100.962 67.9356 100.633 68.5039 99.9923L114.658 48.0693C115.716 46.8808 115.61 45.0548 114.418 43.9991C113.224 42.9375 111.404 43.0443 110.342 44.2385Z" fill="#008F0A"/>
</g>
<defs>
<clipPath id="clip0_116_2">
<rect width="150" height="150" fill="white"/>
</clipPath>
</defs>
</svg>
